<svg height="512pt" viewBox="0 -17 512.00002 512" width="512pt" xmlns="http://www.w3.org/2000/svg"><g fill="#ff7956"><path d="m255.8125 153.550781c32.875-.023437 61.066406-23.480469 67.066406-55.804687.835938-4.101563 1.238282-8.277344 1.195313-12.460938 0-37.699218-30.5625-68.261718-68.261719-68.261718-37.703125 0-68.265625 30.5625-68.265625 68.261718-.042969 4.183594.359375 8.359375 1.195313 12.460938 6 32.324218 34.191406 55.78125 67.070312 55.804687zm0 0"/><path d="m26.101562 409.542969c18.792969 32.59375 60.453126 43.785156 93.050782 24.992187.042968-.027344.085937-.050781.128906-.078125 7.003906-3.988281 13.199219-9.253906 18.261719-15.527343 24.078125-28.863282 20.199219-71.785157-8.664063-95.859376-15.933594-13.292968-37.0625-18.589843-57.382812-14.390624-7.222656 1.335937-14.15625 3.933593-20.476563 7.679687-32.597656 18.796875-43.789062 60.453125-24.992187 93.050781.023437.042969.046875.089844.074218.132813zm0 0"/><path d="m367.421875 341.277344c-14.359375 24.703125-11.699219 55.753906 6.65625 77.652344 5.0625 6.273437 11.257813 11.539062 18.261719 15.527343 31.816406 20.226563 74.003906 10.832031 94.230468-20.984375 20.226563-31.816406 10.828126-74.007812-20.988281-94.230468-1.617187-1.03125-3.28125-1.992188-4.980469-2.878907-6.320312-3.746093-13.253906-6.347656-20.476562-7.679687-28.742188-6.066406-58.113281 7.101562-72.703125 32.59375zm0 0"/></g><path d="m508.902344 353.429688c-5.78125-21.90625-20.105469-40.578126-39.765625-51.832032-3.261719-1.816406-6.636719-3.421875-10.101563-4.8125 10.972656-88.261718-36.910156-173.359375-118.046875-209.792968 0-.578126.152344-1.023438.152344-1.621094.023437-47.125-38.160156-85.3476565-85.285156-85.371094-47.128907-.0234375-85.351563 38.160156-85.375 85.289062v1.703126c-81.148438 36.480468-129.007813 121.628906-117.976563 209.914062-3.457031 1.375-6.820312 2.972656-10.070312 4.777344-40.734375 23.699218-54.542969 75.933594-30.84375 116.667968 11.3125 19.449219 29.851562 33.640626 51.578125 39.488282 7.238281 1.929687 14.695312 2.910156 22.1875 2.917968 14.921875 0 29.574219-3.964843 42.460937-11.484374 4.007813-2.332032 7.816406-4.992188 11.382813-7.953126 70.183593 48.660157 163.195312 48.660157 233.378906 0 3.511719 2.949219 7.277344 5.59375 11.246094 7.898438 12.945312 7.570312 27.667969 11.558594 42.664062 11.554688 7.492188-.003907 14.949219-.984376 22.1875-2.917969 45.484375-12.191407 72.523438-58.894531 60.445313-104.410157zm-253.089844-319.339844c28.273438 0 51.195312 22.921875 51.195312 51.199218.035157 3.15625-.273437 6.308594-.921874 9.402344-5.300782 27.773438-32.117188 45.988282-59.890626 40.6875-20.839843-3.980468-37.066406-20.402344-40.796874-41.285156-.570313-2.902344-.835938-5.851562-.785157-8.804688 0-28.277343 22.921875-51.199218 51.199219-51.199218zm-145.0625 385.691406c-23.917969 15.082031-55.535156 7.917969-70.617188-15.996094-15.082031-23.921875-7.917968-55.535156 16-70.617187 1.113282-.703125 2.253907-1.363281 3.417969-1.976563 4.785157-2.816406 10.03125-4.769531 15.496094-5.769531 3.167969-.636719 6.390625-.972656 9.625-1.007813h2.082031c7.992188.191407 15.820313 2.292969 22.832032 6.128907.597656.324219 1.195312.632812 1.707031.972656 3.292969 1.980469 6.351562 4.328125 9.113281 6.996094.511719.496093.972656 1.042969 1.46875 1.554687 2.859375 2.941406 5.363281 6.214844 7.457031 9.742188 10.695313 18.496094 8.726563 41.699218-4.933593 58.128906l-.238282.289062c-3.707031 4.65625-8.257812 8.578126-13.410156 11.554688zm145.0625 23.894531c-33.878906.148438-67.015625-9.894531-95.109375-28.824219.800781-1.539062 1.398437-3.160156 2.097656-4.746093.5625-1.246094 1.179688-2.472657 1.707031-3.738281 1.269532-3.257813 2.335938-6.59375 3.191407-9.984376.117187-.425781.289062-.835937.390625-1.277343.898437-3.847657 1.527344-7.753907 1.878906-11.691407.117188-1.144531.101562-2.269531.152344-3.414062.148437-2.839844.148437-5.691406 0-8.53125 0-1.398438-.1875-2.78125-.324219-4.183594-.238281-2.609375-.613281-5.117187-1.09375-7.796875-.269531-1.417969-.527344-2.800781-.867187-4.199219-.648438-2.695312-1.484376-5.339843-2.390626-7.988281-.425781-1.195312-.769531-2.386719-1.230468-3.546875-1.484375-3.804687-3.246094-7.496094-5.273438-11.042968-2.117187-3.648438-4.5-7.132813-7.132812-10.429688-.886719-1.109375-1.859375-2.113281-2.796875-3.191406-1.707031-2.046875-3.621094-4.027344-5.566407-5.871094-1.246093-1.175781-2.523437-2.25-3.804687-3.410156-1.808594-1.503906-3.636719-2.9375-5.546875-4.269532-1.519531-1.074218-3.039062-2.132812-4.625-3.105468s-3.582031-2.03125-5.425781-2.96875-3.601563-1.910156-5.480469-2.714844c-1.429688-.628906-2.949219-1.074219-4.433594-1.601562-4.804687-1.769532-9.765625-3.082032-14.816406-3.925782-.851562-.136718-1.703125-.375-2.523438-.476562-2.441406-.34375-4.898437-.410156-7.375-.53125-1.160156 0-2.285156-.238282-3.410156-.238282-.570312-5.636718-.855468-11.296874-.855468-16.964843.160156-64.109375 36.109374-122.765625 93.164062-152.007813.785156 1.707032 1.824219 3.296875 2.714844 4.949219.734375 1.347656 1.414062 2.730469 2.21875 4.027344 1.921875 3.132812 4.058594 6.125 6.398437 8.960937.511719.648438.9375 1.363282 1.484375 1.980469 2.917969 3.382813 6.101563 6.527344 9.523438 9.402344.9375.820312 1.996094 1.484375 2.984375 2.253906 2.546875 1.996094 5.199219 3.847656 7.953125 5.546875 1.367187.835938 2.78125 1.566406 4.214844 2.320312 2.601562 1.402344 5.28125 2.65625 8.023437 3.753907 1.535156.632812 3.054687 1.230469 4.640625 1.707031 2.972656.980469 6 1.796875 9.0625 2.441406 1.433594.324219 2.832031.714844 4.300781.953125 4.613281.828125 9.289063 1.265625 13.976563 1.316407 4.679687-.027344 9.347656-.441407 13.957031-1.230469 1.503906-.257813 2.921875-.667969 4.386719-.992188 3.019531-.632812 6-1.433593 8.925781-2.40625 1.707031-.542969 3.242187-1.175781 4.863281-1.839843 2.59375-1.058594 5.121094-2.238282 7.578125-3.535157 1.605469-.835937 3.191407-1.707031 4.746094-2.609375 2.335937-1.433594 4.539063-3.039062 6.722656-4.675781 1.433594-1.078125 2.902344-2.050781 4.265625-3.210937 2.613282-2.273438 5.089844-4.710938 7.40625-7.285157 1.859375-2.058593 3.605469-4.210937 5.238282-6.453125 1.402343-1.839844 2.816406-3.667968 4.0625-5.648437 1.246093-1.980469 2.234374-3.957031 3.292968-5.988281.667969-1.265626 1.453125-2.441407 2.050782-3.738282 57.050781 29.242188 93 87.894532 93.164062 152.007813-.003906 5.699219-.292969 11.394531-.871094 17.066406-1.996094 0-3.976562.269531-5.972656.425781-1.265625 0-2.542969.101563-3.808594.253906-3.773437.457032-7.515625 1.164063-11.195312 2.117188l-1.3125.339844c-3.667969 1.039062-7.261719 2.328125-10.753906 3.859375-1.363282.578125-2.628907 1.296875-3.941407 1.945312-2.320312 1.144531-4.589843 2.355469-6.824219 3.703125-1.402343.851563-2.730468 1.789063-4.078124 2.730469-2.050782 1.433594-4.011719 2.953125-5.941407 4.554687-1.230469 1.042969-2.441406 2.066407-3.617187 3.191407-1.988282 1.894531-3.878906 3.890625-5.667969 5.972656-.921875 1.042969-1.875 2.015625-2.746094 3.109375-2.625 3.296875-5.011719 6.78125-7.132812 10.425781-2.027344 3.546875-3.789063 7.238281-5.273438 11.042969-.480469 1.195312-.839843 2.421875-1.265625 3.632812-.914062 2.589844-1.699218 5.21875-2.351562 7.886719-.359375 1.449219-.632813 2.902344-.90625 4.367188-.460938 2.492187-.820313 4.96875-1.058594 7.476562-.152344 1.535157-.289062 3.054688-.359375 4.605469-.117187 2.511719 0 5.019531 0 7.511719 0 1.484375 0 2.953125.207031 4.4375.324219 3.296875.851563 6.574219 1.566406 9.8125.394532 1.859375.957032 3.6875 1.488282 5.527343.664062 2.324219 1.328125 4.644532 2.199218 6.828126.667969 1.707031 1.484376 3.414062 2.269532 5.121093.582031 1.261719 1.042968 2.558594 1.707031 3.804688-28.054687 18.949219-61.160156 29.019531-95.015625 28.914062zm215.03125-42.667969c-14.105469 24.445313-45.351562 32.824219-69.792969 18.722657-.058593-.035157-.117187-.066407-.179687-.101563-5.246094-3.007812-9.878906-6.980468-13.652344-11.707031-16.785156-19.890625-15.691406-49.285156 2.527344-67.871094.476562-.496093.9375-1.027343 1.433594-1.519531 2.796874-2.710938 5.902343-5.089844 9.246093-7.082031.445313-.273438.921875-.496094 1.382813-.75 7.347656-4.070313 15.597656-6.242188 23.996094-6.316407h.851562c3.585938.023438 7.15625.402344 10.667969 1.125 5.238281 1.015626 10.261719 2.925782 14.847656 5.652344 24.4375 14.109375 32.8125 45.359375 18.699219 69.796875-.007813.015625-.019532.035157-.027344.050781zm0 0" fill="#3e3d42"/></svg>